<?xml version="1.0" encoding="UTF-8"?><svg xmlns="http://www.w3.org/2000/svg" xmlns:xlink="http://www.w3.org/1999/xlink" fill-opacity="1" color-rendering="auto" color-interpolation="auto" text-rendering="auto" stroke="black" stroke-linecap="square" width="461" stroke-miterlimit="10" shape-rendering="auto" stroke-opacity="1" fill="black" stroke-dasharray="none" font-weight="normal" stroke-width="1" height="527" font-family="'Dialog'" font-style="normal" stroke-linejoin="miter" font-size="12px" stroke-dashoffset="0" image-rendering="auto">
  <!--Generated by ySVG 2.5-->
  <defs id="genericDefs"/>
  <g>
    <defs id="defs1">
      <clipPath clipPathUnits="userSpaceOnUse" id="clipPath1">
        <path d="M0 0 L461 0 L461 527 L0 527 L0 0 Z"/>
      </clipPath>
      <clipPath clipPathUnits="userSpaceOnUse" id="clipPath2">
        <path d="M455 88 L916 88 L916 615 L455 615 L455 88 Z"/>
      </clipPath>
    </defs>
    <g fill="white" text-rendering="geometricPrecision" shape-rendering="geometricPrecision" transform="translate(-455,-88)" stroke="white">
      <rect x="455" width="461" height="527" y="88" clip-path="url(#clipPath2)" stroke="none"/>
    </g>
    <g fill="rgb(255,204,0)" text-rendering="geometricPrecision" shape-rendering="geometricPrecision" transform="matrix(1,0,0,1,-455,-88)" stroke="rgb(255,204,0)">
      <circle r="50" clip-path="url(#clipPath2)" cx="690" cy="407" stroke="none"/>
    </g>
    <g text-rendering="geometricPrecision" stroke-miterlimit="1.45" shape-rendering="geometricPrecision" font-family="sans-serif" transform="matrix(1,0,0,1,-455,-88)" stroke-linecap="butt">
      <text x="686.1826" xml:space="preserve" y="411.1543" clip-path="url(#clipPath2)" stroke="none">1</text>
      <circle fill="none" r="50" clip-path="url(#clipPath2)" cx="690" cy="407"/>
    </g>
    <g fill="rgb(255,204,0)" text-rendering="geometricPrecision" shape-rendering="geometricPrecision" transform="matrix(1,0,0,1,-455,-88)" stroke="rgb(255,204,0)">
      <circle r="45" clip-path="url(#clipPath2)" cx="690" cy="555" stroke="none"/>
    </g>
    <g text-rendering="geometricPrecision" stroke-miterlimit="1.45" shape-rendering="geometricPrecision" font-family="sans-serif" transform="matrix(1,0,0,1,-455,-88)" stroke-linecap="butt">
      <text x="686.1826" xml:space="preserve" y="559.1543" clip-path="url(#clipPath2)" stroke="none">2</text>
      <circle fill="none" r="45" clip-path="url(#clipPath2)" cx="690" cy="555"/>
    </g>
    <g fill="rgb(255,204,0)" text-rendering="geometricPrecision" shape-rendering="geometricPrecision" transform="matrix(1,0,0,1,-455,-88)" stroke="rgb(255,204,0)">
      <circle r="15" clip-path="url(#clipPath2)" cx="598" cy="185" stroke="none"/>
    </g>
    <g text-rendering="geometricPrecision" stroke-miterlimit="1.45" shape-rendering="geometricPrecision" font-family="sans-serif" transform="matrix(1,0,0,1,-455,-88)" stroke-linecap="butt">
      <text x="594.1826" xml:space="preserve" y="189.1543" clip-path="url(#clipPath2)" stroke="none">3</text>
      <circle fill="none" r="15" clip-path="url(#clipPath2)" cx="598" cy="185"/>
    </g>
    <g fill="rgb(255,204,0)" text-rendering="geometricPrecision" shape-rendering="geometricPrecision" transform="matrix(1,0,0,1,-455,-88)" stroke="rgb(255,204,0)">
      <circle r="15" clip-path="url(#clipPath2)" cx="646" cy="118" stroke="none"/>
    </g>
    <g text-rendering="geometricPrecision" stroke-miterlimit="1.45" shape-rendering="geometricPrecision" font-family="sans-serif" transform="matrix(1,0,0,1,-455,-88)" stroke-linecap="butt">
      <text x="642.1826" xml:space="preserve" y="122.1543" clip-path="url(#clipPath2)" stroke="none">4</text>
      <circle fill="none" r="15" clip-path="url(#clipPath2)" cx="646" cy="118"/>
    </g>
    <g fill="rgb(255,204,0)" text-rendering="geometricPrecision" shape-rendering="geometricPrecision" transform="matrix(1,0,0,1,-455,-88)" stroke="rgb(255,204,0)">
      <circle r="15" clip-path="url(#clipPath2)" cx="712" cy="118" stroke="none"/>
    </g>
    <g text-rendering="geometricPrecision" stroke-miterlimit="1.45" shape-rendering="geometricPrecision" font-family="sans-serif" transform="matrix(1,0,0,1,-455,-88)" stroke-linecap="butt">
      <text x="708.1826" xml:space="preserve" y="122.1543" clip-path="url(#clipPath2)" stroke="none">5</text>
      <circle fill="none" r="15" clip-path="url(#clipPath2)" cx="712" cy="118"/>
    </g>
    <g fill="rgb(255,204,0)" text-rendering="geometricPrecision" shape-rendering="geometricPrecision" transform="matrix(1,0,0,1,-455,-88)" stroke="rgb(255,204,0)">
      <circle r="15" clip-path="url(#clipPath2)" cx="646" cy="245" stroke="none"/>
    </g>
    <g text-rendering="geometricPrecision" stroke-miterlimit="1.45" shape-rendering="geometricPrecision" font-family="sans-serif" transform="matrix(1,0,0,1,-455,-88)" stroke-linecap="butt">
      <text x="642.1826" xml:space="preserve" y="249.1543" clip-path="url(#clipPath2)" stroke="none">7</text>
      <circle fill="none" r="15" clip-path="url(#clipPath2)" cx="646" cy="245"/>
    </g>
    <g fill="rgb(255,204,0)" text-rendering="geometricPrecision" shape-rendering="geometricPrecision" transform="matrix(1,0,0,1,-455,-88)" stroke="rgb(255,204,0)">
      <circle r="15" clip-path="url(#clipPath2)" cx="712" cy="245" stroke="none"/>
    </g>
    <g text-rendering="geometricPrecision" stroke-miterlimit="1.45" shape-rendering="geometricPrecision" font-family="sans-serif" transform="matrix(1,0,0,1,-455,-88)" stroke-linecap="butt">
      <text x="708.1826" xml:space="preserve" y="249.1543" clip-path="url(#clipPath2)" stroke="none">8</text>
      <circle fill="none" r="15" clip-path="url(#clipPath2)" cx="712" cy="245"/>
    </g>
    <g fill="rgb(255,204,0)" text-rendering="geometricPrecision" shape-rendering="geometricPrecision" transform="matrix(1,0,0,1,-455,-88)" stroke="rgb(255,204,0)">
      <circle r="15" clip-path="url(#clipPath2)" cx="772" cy="185" stroke="none"/>
    </g>
    <g text-rendering="geometricPrecision" stroke-miterlimit="1.45" shape-rendering="geometricPrecision" font-family="sans-serif" transform="matrix(1,0,0,1,-455,-88)" stroke-linecap="butt">
      <text x="768.1826" xml:space="preserve" y="189.1543" clip-path="url(#clipPath2)" stroke="none">6</text>
      <circle fill="none" r="15" clip-path="url(#clipPath2)" cx="772" cy="185"/>
      <path fill="none" d="M690 457 L690 502" clip-path="url(#clipPath2)"/>
      <path d="M690 510 L695 498 L690 501 L685 498 Z" clip-path="url(#clipPath2)" stroke="none"/>
      <path fill="none" d="M591.2624 198.4017 L580.4609 219.8867 L569.0625 247.5312 L566.0029 259.4507 L564.8828 270.5352 L565.8369 281.1099 L569 291.5 L574.5068 302.0308 L582.4922 313.0273 L593.0908 324.8149 L606.4375 337.7188 L641.9141 368.1758 L644.8728 370.5646" clip-path="url(#clipPath2)"/>
      <path d="M651.0972 375.5902 L644.9016 364.1616 L644.0947 369.9364 L638.6196 371.9421 Z" clip-path="url(#clipPath2)" stroke="none"/>
      <path fill="none" d="M611.3948 166.303 L632.6052 136.697" clip-path="url(#clipPath2)"/>
      <path d="M606.7358 172.8063 L617.7889 165.9633 L611.9772 165.4901 L609.6598 160.1394 Z" clip-path="url(#clipPath2)" stroke="none"/>
      <path d="M637.2642 130.1937 L626.2111 137.0367 L632.0228 137.5099 L634.3402 142.8606 Z" clip-path="url(#clipPath2)" stroke="none"/>
      <path fill="none" d="M631.1517 120.128 L628.1154 120.5631 L610.8765 124.4426 L594.3428 129.5486 L578.5742 135.791 L563.6303 143.0801 L549.5708 151.3259 L536.4554 160.4386 L524.3438 170.3281 L513.2956 180.9047 L503.3706 192.0784 L494.6285 203.7592 L487.1289 215.8574 L480.9316 228.283 L476.0962 240.946 L472.6824 253.7567 L470.75 266.625 L470.3586 279.4611 L471.5679 292.175 L474.4376 304.677 L479.0273 316.877 L485.3969 328.6851 L493.606 340.0115 L503.7142 350.7662 L515.7812 360.8594 L529.8669 370.2011 L546.0308 378.7014 L564.3326 386.2705 L584.832 392.8184 L607.5888 398.2552 L632.1906 402.4112 L632.29 402.4219" clip-path="url(#clipPath2)"/>
      <path d="M640.2411 403.3044 L628.8659 397.0112 L631.2961 402.3116 L627.7628 406.9502 Z" clip-path="url(#clipPath2)" stroke="none"/>
      <path fill="none" d="M669 118 L689 118" clip-path="url(#clipPath2)"/>
      <path d="M661 118 L673 123 L670 118 L673 113 Z" clip-path="url(#clipPath2)" stroke="none"/>
      <path d="M697 118 L685 113 L688 118 L685 123 Z" clip-path="url(#clipPath2)" stroke="none"/>
      <path fill="none" d="M617.829 173.3461 L692.171 129.6539" clip-path="url(#clipPath2)"/>
      <path d="M610.9319 177.3997 L623.8109 175.63 L618.6911 172.8395 L618.744 167.0087 Z" clip-path="url(#clipPath2)" stroke="none"/>
      <path d="M699.0681 125.6003 L686.1891 127.37 L691.3089 130.1605 L691.256 135.9913 Z" clip-path="url(#clipPath2)" stroke="none"/>
      <path fill="none" d="M726.996 117.6529 L733.2002 117.5093 L753.2812 118.7737 L772.2139 121.679 L789.9688 126.1113 L806.5166 131.9565 L821.8281 139.1003 L835.874 147.4289 L848.625 156.8281 L860.0518 167.1839 L870.125 178.3821 L878.8154 190.3087 L886.0938 202.8496 L891.9307 215.8908 L896.2969 229.3181 L899.1631 243.0175 L900.5 256.875 L900.2783 270.7764 L898.4688 284.6077 L895.042 298.2547 L889.9688 311.6035 L883.2197 324.5399 L874.7656 336.95 L864.5771 348.7195 L852.625 359.7344 L838.8799 369.8806 L823.3125 379.0442 L805.8936 387.1109 L786.5938 393.9668 L765.3838 399.4977 L747.8345 402.5997 L747.735 402.6098" clip-path="url(#clipPath2)"/>
      <path d="M739.8299 403.838 L752.4553 406.9364 L748.7232 402.4562 L750.92 397.0549 Z" clip-path="url(#clipPath2)" stroke="none"/>
      <path fill="none" d="M701.3939 138.4086 L656.6061 224.5914" clip-path="url(#clipPath2)"/>
      <path d="M705.083 131.31 L695.1127 139.6523 L700.9328 139.2959 L703.986 144.2636 Z" clip-path="url(#clipPath2)" stroke="none"/>
      <path d="M652.917 231.69 L662.8873 223.3477 L657.0672 223.7041 L654.014 218.7364 Z" clip-path="url(#clipPath2)" stroke="none"/>
      <path fill="none" d="M646 141 L646 222" clip-path="url(#clipPath2)"/>
      <path d="M646 133 L641 145 L646 142 L651 145 Z" clip-path="url(#clipPath2)" stroke="none"/>
      <path d="M646 230 L651 218 L646 221 L641 218 Z" clip-path="url(#clipPath2)" stroke="none"/>
      <path fill="none" d="M631.632 227.04 L612.368 202.96" clip-path="url(#clipPath2)"/>
      <path d="M636.6296 233.287 L633.0376 220.7931 L631.0073 226.2592 L625.2289 227.04 Z" clip-path="url(#clipPath2)" stroke="none"/>
      <path d="M607.3704 196.713 L610.9624 209.2069 L612.9927 203.7408 L618.7711 202.96 Z" clip-path="url(#clipPath2)" stroke="none"/>
      <path fill="none" d="M649.9316 259.4756 L674.7977 351.0278" clip-path="url(#clipPath2)"/>
      <path d="M676.8945 358.7481 L678.5744 345.8571 L674.5356 350.0627 L668.9241 348.4781 Z" clip-path="url(#clipPath2)" stroke="none"/>
      <path fill="none" d="M656.6061 138.4086 L701.3939 224.5914" clip-path="url(#clipPath2)"/>
      <path d="M652.917 131.31 L654.014 144.2636 L657.0672 139.2959 L662.8873 139.6523 Z" clip-path="url(#clipPath2)" stroke="none"/>
      <path d="M705.083 231.69 L703.986 218.7364 L700.9328 223.7041 L695.1127 223.3477 Z" clip-path="url(#clipPath2)" stroke="none"/>
      <path fill="none" d="M712 141 L712 222" clip-path="url(#clipPath2)"/>
      <path d="M712 133 L707 145 L712 142 L717 145 Z" clip-path="url(#clipPath2)" stroke="none"/>
      <path d="M712 230 L717 218 L712 221 L707 218 Z" clip-path="url(#clipPath2)" stroke="none"/>
      <path fill="none" d="M618.3531 195.7122 L691.6469 234.2878" clip-path="url(#clipPath2)"/>
      <path d="M611.2738 191.9862 L619.5641 201.9998 L619.238 196.1779 L624.2216 193.1506 Z" clip-path="url(#clipPath2)" stroke="none"/>
      <path d="M698.7262 238.0138 L690.4359 228.0002 L690.762 233.8221 L685.7784 236.8494 Z" clip-path="url(#clipPath2)" stroke="none"/>
      <path fill="none" d="M689 245 L669 245" clip-path="url(#clipPath2)"/>
      <path d="M697 245 L685 240 L688 245 L685 250 Z" clip-path="url(#clipPath2)" stroke="none"/>
      <path d="M661 245 L673 250 L670 245 L673 240 Z" clip-path="url(#clipPath2)" stroke="none"/>
      <path fill="none" d="M709.9815 259.8636 L697.8049 349.5275" clip-path="url(#clipPath2)"/>
      <path d="M696.7284 357.4548 L703.2977 346.2368 L697.9395 348.5366 L693.3887 344.8911 Z" clip-path="url(#clipPath2)" stroke="none"/>
      <path fill="none" d="M727.3438 135.1339 L756.6562 167.8661" clip-path="url(#clipPath2)"/>
      <path d="M722.0068 129.1743 L726.2875 141.4493 L728.0109 135.8788 L733.737 134.7781 Z" clip-path="url(#clipPath2)" stroke="none"/>
      <path d="M761.9932 173.8257 L757.7125 161.5507 L755.9891 167.1212 L750.263 168.2219 Z" clip-path="url(#clipPath2)" stroke="none"/>
      <path fill="none" d="M621 185 L749 185" clip-path="url(#clipPath2)"/>
      <path d="M613 185 L625 190 L622 185 L625 180 Z" clip-path="url(#clipPath2)" stroke="none"/>
      <path d="M757 185 L745 180 L748 185 L745 190 Z" clip-path="url(#clipPath2)" stroke="none"/>
      <path fill="none" d="M666.3075 128.7984 L751.6925 174.2016" clip-path="url(#clipPath2)"/>
      <path d="M659.244 125.0424 L667.4918 135.0911 L667.1904 129.2679 L672.1867 126.2617 Z" clip-path="url(#clipPath2)" stroke="none"/>
      <path d="M758.756 177.9576 L750.5082 167.9089 L750.8096 173.7321 L745.8133 176.7383 Z" clip-path="url(#clipPath2)" stroke="none"/>
      <path fill="none" d="M755.7366 201.2635 L728.2634 228.7365" clip-path="url(#clipPath2)"/>
      <path d="M761.3934 195.6066 L749.3726 200.5564 L755.0294 201.9706 L756.4437 207.6274 Z" clip-path="url(#clipPath2)" stroke="none"/>
      <path d="M722.6066 234.3934 L734.6274 229.4436 L728.9706 228.0294 L727.5563 222.3726 Z" clip-path="url(#clipPath2)" stroke="none"/>
      <path fill="none" d="M751.2342 194.8885 L666.7658 235.1115" clip-path="url(#clipPath2)"/>
      <path d="M758.4571 191.449 L745.4731 192.0939 L750.3314 195.3184 L749.7724 201.1225 Z" clip-path="url(#clipPath2)" stroke="none"/>
      <path d="M659.5429 238.551 L672.5269 237.9061 L667.6686 234.6816 L668.2276 228.8775 Z" clip-path="url(#clipPath2)" stroke="none"/>
      <path fill="none" d="M783.0414 195.1532 L784.4604 196.458 L794.8086 208.3203 L802.9946 220.5693 L808.9688 233.1875 L812.6812 246.1572 L814.082 259.4609 L813.1216 273.0811 L809.75 287 L803.9175 301.2002 L795.5742 315.6641 L784.6704 330.374 L771.1562 345.3125 L754.9819 360.4619 L737.9287 374.317 L737.8474 374.3753" clip-path="url(#clipPath2)"/>
      <path d="M731.4308 379.153 L744.0418 375.9968 L738.6495 373.778 L738.0696 367.976 Z" clip-path="url(#clipPath2)" stroke="none"/>
    </g>
  </g>
</svg>
