<?xml version="1.0" encoding="UTF-8"?><svg xmlns="http://www.w3.org/2000/svg" xmlns:xlink="http://www.w3.org/1999/xlink" fill-opacity="1" color-rendering="auto" color-interpolation="auto" text-rendering="auto" stroke="black" stroke-linecap="square" width="360" stroke-miterlimit="10" shape-rendering="auto" stroke-opacity="1" fill="black" stroke-dasharray="none" font-weight="normal" stroke-width="1" height="435" font-family="'Dialog'" font-style="normal" stroke-linejoin="miter" font-size="12px" stroke-dashoffset="0" image-rendering="auto">
  <!--Generated by ySVG 2.5-->
  <defs id="genericDefs"/>
  <g>
    <defs id="defs1">
      <clipPath clipPathUnits="userSpaceOnUse" id="clipPath1">
        <path d="M0 0 L360 0 L360 435 L0 435 L0 0 Z"/>
      </clipPath>
      <clipPath clipPathUnits="userSpaceOnUse" id="clipPath2">
        <path d="M427 180 L787 180 L787 615 L427 615 L427 180 Z"/>
      </clipPath>
    </defs>
    <g fill="white" text-rendering="geometricPrecision" shape-rendering="geometricPrecision" transform="translate(-427,-180)" stroke="white">
      <rect x="427" width="360" height="435" y="180" clip-path="url(#clipPath2)" stroke="none"/>
    </g>
    <g fill="rgb(255,204,0)" text-rendering="geometricPrecision" shape-rendering="geometricPrecision" transform="matrix(1,0,0,1,-427,-180)" stroke="rgb(255,204,0)">
      <circle r="50" clip-path="url(#clipPath2)" cx="612" cy="407" stroke="none"/>
    </g>
    <g text-rendering="geometricPrecision" stroke-miterlimit="1.45" shape-rendering="geometricPrecision" font-family="sans-serif" transform="matrix(1,0,0,1,-427,-180)" stroke-linecap="butt">
      <text x="608.1826" xml:space="preserve" y="411.1543" clip-path="url(#clipPath2)" stroke="none">1</text>
      <circle fill="none" r="50" clip-path="url(#clipPath2)" cx="612" cy="407"/>
    </g>
    <g fill="rgb(255,204,0)" text-rendering="geometricPrecision" shape-rendering="geometricPrecision" transform="matrix(1,0,0,1,-427,-180)" stroke="rgb(255,204,0)">
      <circle r="15" clip-path="url(#clipPath2)" cx="457" cy="248" stroke="none"/>
    </g>
    <g text-rendering="geometricPrecision" stroke-miterlimit="1.45" shape-rendering="geometricPrecision" font-family="sans-serif" transform="matrix(1,0,0,1,-427,-180)" stroke-linecap="butt">
      <text x="453.1826" xml:space="preserve" y="252.1543" clip-path="url(#clipPath2)" stroke="none">3</text>
      <circle fill="none" r="15" clip-path="url(#clipPath2)" cx="457" cy="248"/>
    </g>
    <g fill="rgb(255,204,0)" text-rendering="geometricPrecision" shape-rendering="geometricPrecision" transform="matrix(1,0,0,1,-427,-180)" stroke="rgb(255,204,0)">
      <circle r="15" clip-path="url(#clipPath2)" cx="517" cy="248" stroke="none"/>
    </g>
    <g text-rendering="geometricPrecision" stroke-miterlimit="1.45" shape-rendering="geometricPrecision" font-family="sans-serif" transform="matrix(1,0,0,1,-427,-180)" stroke-linecap="butt">
      <text x="513.1826" xml:space="preserve" y="252.1543" clip-path="url(#clipPath2)" stroke="none">4</text>
      <circle fill="none" r="15" clip-path="url(#clipPath2)" cx="517" cy="248"/>
    </g>
    <g fill="rgb(255,204,0)" text-rendering="geometricPrecision" shape-rendering="geometricPrecision" transform="matrix(1,0,0,1,-427,-180)" stroke="rgb(255,204,0)">
      <circle r="15" clip-path="url(#clipPath2)" cx="577" cy="248" stroke="none"/>
    </g>
    <g text-rendering="geometricPrecision" stroke-miterlimit="1.45" shape-rendering="geometricPrecision" font-family="sans-serif" transform="matrix(1,0,0,1,-427,-180)" stroke-linecap="butt">
      <text x="573.1826" xml:space="preserve" y="252.1543" clip-path="url(#clipPath2)" stroke="none">5</text>
      <circle fill="none" r="15" clip-path="url(#clipPath2)" cx="577" cy="248"/>
    </g>
    <g fill="rgb(255,204,0)" text-rendering="geometricPrecision" shape-rendering="geometricPrecision" transform="matrix(1,0,0,1,-427,-180)" stroke="rgb(255,204,0)">
      <circle r="15" clip-path="url(#clipPath2)" cx="637" cy="248" stroke="none"/>
    </g>
    <g text-rendering="geometricPrecision" stroke-miterlimit="1.45" shape-rendering="geometricPrecision" font-family="sans-serif" transform="matrix(1,0,0,1,-427,-180)" stroke-linecap="butt">
      <text x="633.1826" xml:space="preserve" y="252.1543" clip-path="url(#clipPath2)" stroke="none">6</text>
      <circle fill="none" r="15" clip-path="url(#clipPath2)" cx="637" cy="248"/>
    </g>
    <g fill="rgb(255,204,0)" text-rendering="geometricPrecision" shape-rendering="geometricPrecision" transform="matrix(1,0,0,1,-427,-180)" stroke="rgb(255,204,0)">
      <circle r="15" clip-path="url(#clipPath2)" cx="697" cy="248" stroke="none"/>
    </g>
    <g text-rendering="geometricPrecision" stroke-miterlimit="1.45" shape-rendering="geometricPrecision" font-family="sans-serif" transform="matrix(1,0,0,1,-427,-180)" stroke-linecap="butt">
      <text x="693.1826" xml:space="preserve" y="252.1543" clip-path="url(#clipPath2)" stroke="none">7</text>
      <circle fill="none" r="15" clip-path="url(#clipPath2)" cx="697" cy="248"/>
    </g>
    <g fill="rgb(255,204,0)" text-rendering="geometricPrecision" shape-rendering="geometricPrecision" transform="matrix(1,0,0,1,-427,-180)" stroke="rgb(255,204,0)">
      <circle r="15" clip-path="url(#clipPath2)" cx="757" cy="248" stroke="none"/>
    </g>
    <g text-rendering="geometricPrecision" stroke-miterlimit="1.45" shape-rendering="geometricPrecision" font-family="sans-serif" transform="matrix(1,0,0,1,-427,-180)" stroke-linecap="butt">
      <text x="753.1826" xml:space="preserve" y="252.1543" clip-path="url(#clipPath2)" stroke="none">8</text>
      <circle fill="none" r="15" clip-path="url(#clipPath2)" cx="757" cy="248"/>
    </g>
    <g fill="rgb(255,204,0)" text-rendering="geometricPrecision" shape-rendering="geometricPrecision" transform="matrix(1,0,0,1,-427,-180)" stroke="rgb(255,204,0)">
      <circle r="45" clip-path="url(#clipPath2)" cx="612" cy="555" stroke="none"/>
    </g>
    <g text-rendering="geometricPrecision" stroke-miterlimit="1.45" shape-rendering="geometricPrecision" font-family="sans-serif" transform="matrix(1,0,0,1,-427,-180)" stroke-linecap="butt">
      <text x="608.1826" xml:space="preserve" y="559.1543" clip-path="url(#clipPath2)" stroke="none">2</text>
      <circle fill="none" r="45" clip-path="url(#clipPath2)" cx="612" cy="555"/>
      <path fill="none" d="M467.4706 258.7408 L571.5135 365.4687" clip-path="url(#clipPath2)"/>
      <path d="M577.0979 371.1972 L572.3016 359.1143 L570.8155 364.7527 L565.1411 366.0947 Z" clip-path="url(#clipPath2)" stroke="none"/>
      <path fill="none" d="M472 248 L494 248" clip-path="url(#clipPath2)"/>
      <path d="M502 248 L490 243 L493 248 L490 253 Z" clip-path="url(#clipPath2)" stroke="none"/>
      <path fill="none" d="M524.6936 260.8767 L582.2514 357.2102" clip-path="url(#clipPath2)"/>
      <path d="M586.3547 364.0778 L584.492 351.2119 L581.7385 356.3518 L575.9075 356.341 Z" clip-path="url(#clipPath2)" stroke="none"/>
      <path fill="none" d="M532 248 L554 248" clip-path="url(#clipPath2)"/>
      <path d="M562 248 L550 243 L553 248 L550 253 Z" clip-path="url(#clipPath2)" stroke="none"/>
      <path fill="none" d="M580.2247 262.6493 L599.5312 350.3561" clip-path="url(#clipPath2)"/>
      <path d="M601.251 358.1691 L603.5544 345.3748 L599.3163 349.3795 L593.7883 347.5245 Z" clip-path="url(#clipPath2)" stroke="none"/>
      <path fill="none" d="M592 248 L614 248" clip-path="url(#clipPath2)"/>
      <path d="M622 248 L610 243 L613 248 L610 253 Z" clip-path="url(#clipPath2)" stroke="none"/>
      <path fill="none" d="M634.6701 262.818 L621.0088 349.7039" clip-path="url(#clipPath2)"/>
      <path d="M619.7662 357.6068 L626.5694 346.5291 L621.1641 348.7161 L616.6907 344.9759 Z" clip-path="url(#clipPath2)" stroke="none"/>
      <path fill="none" d="M652 248 L674 248" clip-path="url(#clipPath2)"/>
      <path d="M682 248 L670 243 L673 248 L670 253 Z" clip-path="url(#clipPath2)" stroke="none"/>
      <path fill="none" d="M689.9282 261.2284 L639.3442 355.8503" clip-path="url(#clipPath2)"/>
      <path d="M635.5726 362.9054 L645.6395 354.68 L639.8156 354.9684 L636.8206 349.9655 Z" clip-path="url(#clipPath2)" stroke="none"/>
      <path fill="none" d="M712 248 L734 248" clip-path="url(#clipPath2)"/>
      <path d="M742 248 L730 243 L733 248 L730 253 Z" clip-path="url(#clipPath2)" stroke="none"/>
      <path fill="none" d="M746.8926 259.0833 L651.082 364.1445" clip-path="url(#clipPath2)"/>
      <path d="M645.6914 370.0556 L657.4718 364.5581 L651.7559 363.4056 L650.0829 357.8198 Z" clip-path="url(#clipPath2)" stroke="none"/>
      <path fill="none" d="M745.4156 238.4709 L741.1064 234.9263 L723.7656 223.8008 L705.2061 214.5796 L685.6562 207.2188 L665.3447 201.6743 L644.5 197.9023 L623.3506 195.8589 L602.125 195.5 L581.0518 196.7817 L560.3594 199.6602 L540.2764 204.0913 L521.0312 210.0312 L502.8525 217.436 L485.9688 226.2617 L474.9172 233.6024 L474.8409 233.6671" clip-path="url(#clipPath2)"/>
      <path d="M468.3614 238.3592 L481.0132 235.3707 L475.6508 233.0806 L475.1481 227.2713 Z" clip-path="url(#clipPath2)" stroke="none"/>
      <path fill="none" d="M581.0428 446.2271 L577.9688 450.375 L569.4609 466.1328 L567.334 473.2881 L566.625 480.25 L567.334 487.2354 L569.4609 494.4609 L577.9688 510.5 L579.7327 512.9384" clip-path="url(#clipPath2)"/>
      <path d="M584.4216 519.4202 L581.4393 506.7669 L579.1465 512.1282 L573.3371 512.6281 Z" clip-path="url(#clipPath2)" stroke="none"/>
      <path fill="none" d="M638.149 518.3832 L639.2812 516.6875 L646.1016 502.1953 L647.8066 495.3564 L648.375 488.5 L646.1016 473.8672 L639.8127 457.9109 L639.7663 457.8223" clip-path="url(#clipPath2)"/>
      <path d="M636.195 450.6636 L637.0778 463.6336 L640.2127 458.7171 L646.0261 459.1695 Z" clip-path="url(#clipPath2)" stroke="none"/>
    </g>
  </g>
</svg>
