<?xml version="1.0" encoding="UTF-8"?><svg xmlns="http://www.w3.org/2000/svg" xmlns:xlink="http://www.w3.org/1999/xlink" fill-opacity="1" color-rendering="auto" color-interpolation="auto" text-rendering="auto" stroke="black" stroke-linecap="square" width="461" stroke-miterlimit="10" shape-rendering="auto" stroke-opacity="1" fill="black" stroke-dasharray="none" font-weight="normal" stroke-width="1" height="527" font-family="'Dialog'" font-style="normal" stroke-linejoin="miter" font-size="12px" stroke-dashoffset="0" image-rendering="auto">
  <!--Generated by ySVG 2.5-->
  <defs id="genericDefs"/>
  <g>
    <defs id="defs1">
      <clipPath clipPathUnits="userSpaceOnUse" id="clipPath1">
        <path d="M0 0 L461 0 L461 527 L0 527 L0 0 Z"/>
      </clipPath>
      <clipPath clipPathUnits="userSpaceOnUse" id="clipPath2">
        <path d="M299 63 L760 63 L760 590 L299 590 L299 63 Z"/>
      </clipPath>
    </defs>
    <g fill="white" text-rendering="geometricPrecision" shape-rendering="geometricPrecision" transform="translate(-299,-63)" stroke="white">
      <rect x="299" width="461" height="527" y="63" clip-path="url(#clipPath2)" stroke="none"/>
    </g>
    <g fill="rgb(255,204,0)" text-rendering="geometricPrecision" shape-rendering="geometricPrecision" transform="matrix(1,0,0,1,-299,-63)" stroke="rgb(255,204,0)">
      <circle r="50" clip-path="url(#clipPath2)" cx="534" cy="382" stroke="none"/>
    </g>
    <g text-rendering="geometricPrecision" stroke-miterlimit="1.45" shape-rendering="geometricPrecision" font-family="sans-serif" transform="matrix(1,0,0,1,-299,-63)" stroke-linecap="butt">
      <text x="530.1826" xml:space="preserve" y="386.1543" clip-path="url(#clipPath2)" stroke="none">1</text>
      <circle fill="none" r="50" clip-path="url(#clipPath2)" cx="534" cy="382"/>
    </g>
    <g fill="rgb(255,204,0)" text-rendering="geometricPrecision" shape-rendering="geometricPrecision" transform="matrix(1,0,0,1,-299,-63)" stroke="rgb(255,204,0)">
      <circle r="45" clip-path="url(#clipPath2)" cx="534" cy="530" stroke="none"/>
    </g>
    <g text-rendering="geometricPrecision" stroke-miterlimit="1.45" shape-rendering="geometricPrecision" font-family="sans-serif" transform="matrix(1,0,0,1,-299,-63)" stroke-linecap="butt">
      <text x="530.1826" xml:space="preserve" y="534.1543" clip-path="url(#clipPath2)" stroke="none">2</text>
      <circle fill="none" r="45" clip-path="url(#clipPath2)" cx="534" cy="530"/>
    </g>
    <g fill="rgb(255,204,0)" text-rendering="geometricPrecision" shape-rendering="geometricPrecision" transform="matrix(1,0,0,1,-299,-63)" stroke="rgb(255,204,0)">
      <circle r="15" clip-path="url(#clipPath2)" cx="442" cy="160" stroke="none"/>
    </g>
    <g text-rendering="geometricPrecision" stroke-miterlimit="1.45" shape-rendering="geometricPrecision" font-family="sans-serif" transform="matrix(1,0,0,1,-299,-63)" stroke-linecap="butt">
      <text x="438.1826" xml:space="preserve" y="164.1543" clip-path="url(#clipPath2)" stroke="none">3</text>
      <circle fill="none" r="15" clip-path="url(#clipPath2)" cx="442" cy="160"/>
    </g>
    <g fill="rgb(255,204,0)" text-rendering="geometricPrecision" shape-rendering="geometricPrecision" transform="matrix(1,0,0,1,-299,-63)" stroke="rgb(255,204,0)">
      <circle r="15" clip-path="url(#clipPath2)" cx="490" cy="93" stroke="none"/>
    </g>
    <g text-rendering="geometricPrecision" stroke-miterlimit="1.45" shape-rendering="geometricPrecision" font-family="sans-serif" transform="matrix(1,0,0,1,-299,-63)" stroke-linecap="butt">
      <text x="486.1826" xml:space="preserve" y="97.1543" clip-path="url(#clipPath2)" stroke="none">4</text>
      <circle fill="none" r="15" clip-path="url(#clipPath2)" cx="490" cy="93"/>
    </g>
    <g fill="rgb(255,204,0)" text-rendering="geometricPrecision" shape-rendering="geometricPrecision" transform="matrix(1,0,0,1,-299,-63)" stroke="rgb(255,204,0)">
      <circle r="15" clip-path="url(#clipPath2)" cx="556" cy="93" stroke="none"/>
    </g>
    <g text-rendering="geometricPrecision" stroke-miterlimit="1.45" shape-rendering="geometricPrecision" font-family="sans-serif" transform="matrix(1,0,0,1,-299,-63)" stroke-linecap="butt">
      <text x="552.1826" xml:space="preserve" y="97.1543" clip-path="url(#clipPath2)" stroke="none">5</text>
      <circle fill="none" r="15" clip-path="url(#clipPath2)" cx="556" cy="93"/>
    </g>
    <g fill="rgb(255,204,0)" text-rendering="geometricPrecision" shape-rendering="geometricPrecision" transform="matrix(1,0,0,1,-299,-63)" stroke="rgb(255,204,0)">
      <circle r="15" clip-path="url(#clipPath2)" cx="490" cy="220" stroke="none"/>
    </g>
    <g text-rendering="geometricPrecision" stroke-miterlimit="1.45" shape-rendering="geometricPrecision" font-family="sans-serif" transform="matrix(1,0,0,1,-299,-63)" stroke-linecap="butt">
      <text x="486.1826" xml:space="preserve" y="224.1543" clip-path="url(#clipPath2)" stroke="none">7</text>
      <circle fill="none" r="15" clip-path="url(#clipPath2)" cx="490" cy="220"/>
    </g>
    <g fill="rgb(255,204,0)" text-rendering="geometricPrecision" shape-rendering="geometricPrecision" transform="matrix(1,0,0,1,-299,-63)" stroke="rgb(255,204,0)">
      <circle r="15" clip-path="url(#clipPath2)" cx="556" cy="220" stroke="none"/>
    </g>
    <g text-rendering="geometricPrecision" stroke-miterlimit="1.45" shape-rendering="geometricPrecision" font-family="sans-serif" transform="matrix(1,0,0,1,-299,-63)" stroke-linecap="butt">
      <text x="552.1826" xml:space="preserve" y="224.1543" clip-path="url(#clipPath2)" stroke="none">8</text>
      <circle fill="none" r="15" clip-path="url(#clipPath2)" cx="556" cy="220"/>
    </g>
    <g fill="rgb(255,204,0)" text-rendering="geometricPrecision" shape-rendering="geometricPrecision" transform="matrix(1,0,0,1,-299,-63)" stroke="rgb(255,204,0)">
      <circle r="15" clip-path="url(#clipPath2)" cx="616" cy="160" stroke="none"/>
    </g>
    <g text-rendering="geometricPrecision" stroke-miterlimit="1.45" shape-rendering="geometricPrecision" font-family="sans-serif" transform="matrix(1,0,0,1,-299,-63)" stroke-linecap="butt">
      <text x="612.1826" xml:space="preserve" y="164.1543" clip-path="url(#clipPath2)" stroke="none">6</text>
      <circle fill="none" r="15" clip-path="url(#clipPath2)" cx="616" cy="160"/>
      <path fill="none" d="M503.0428 421.2271 L499.9688 425.375 L491.4609 441.1328 L489.334 448.2881 L488.625 455.25 L489.334 462.2354 L491.4609 469.4609 L499.9688 485.5 L501.7327 487.9384" clip-path="url(#clipPath2)"/>
      <path d="M506.4216 494.4202 L503.4394 481.7669 L501.1466 487.1282 L495.3371 487.6281 Z" clip-path="url(#clipPath2)" stroke="none"/>
      <path fill="none" d="M560.149 493.3832 L561.2812 491.6875 L568.1016 477.1953 L569.8066 470.3564 L570.375 463.5 L568.1016 448.8672 L561.8127 432.9109 L561.7663 432.8223" clip-path="url(#clipPath2)"/>
      <path d="M558.195 425.6636 L559.0778 438.6336 L562.2127 433.7171 L568.0261 434.1695 Z" clip-path="url(#clipPath2)" stroke="none"/>
      <path fill="none" d="M435.2624 173.4017 L424.4609 194.8867 L413.0625 222.5312 L410.0029 234.4507 L408.8828 245.5352 L409.8369 256.1099 L413 266.5 L418.5068 277.0308 L426.4922 288.0273 L437.0908 299.8149 L450.4375 312.7188 L485.9141 343.1758 L488.8728 345.5646" clip-path="url(#clipPath2)"/>
      <path d="M495.0972 350.5902 L488.9016 339.1616 L488.0948 344.9364 L482.6196 346.9421 Z" clip-path="url(#clipPath2)" stroke="none"/>
      <path fill="none" d="M455.3949 141.303 L476.6051 111.697" clip-path="url(#clipPath2)"/>
      <path d="M450.7358 147.8063 L461.789 140.9633 L455.9773 140.4901 L453.6599 135.1394 Z" clip-path="url(#clipPath2)" stroke="none"/>
      <path d="M481.2642 105.1937 L470.211 112.0367 L476.0227 112.5099 L478.3401 117.8606 Z" clip-path="url(#clipPath2)" stroke="none"/>
      <path fill="none" d="M475.1517 95.128 L472.1154 95.5631 L454.8765 99.4426 L438.3428 104.5486 L422.5742 110.791 L407.6303 118.0801 L393.5708 126.3259 L380.4554 135.4386 L368.3438 145.3281 L357.2956 155.9047 L347.3706 167.0784 L338.6285 178.7592 L331.1289 190.8574 L324.9316 203.283 L320.0962 215.946 L316.6824 228.7567 L314.75 241.625 L314.3586 254.4611 L315.5679 267.175 L318.4376 279.677 L323.0273 291.877 L329.3969 303.6851 L337.606 315.0115 L347.7142 325.7662 L359.7812 335.8594 L373.8669 345.2011 L390.0308 353.7014 L408.3326 361.2705 L428.832 367.8184 L451.5888 373.2552 L476.1906 377.4112 L476.29 377.4219" clip-path="url(#clipPath2)"/>
      <path d="M484.2411 378.3044 L472.8659 372.0112 L475.2961 377.3116 L471.7628 381.9502 Z" clip-path="url(#clipPath2)" stroke="none"/>
      <path fill="none" d="M513 93 L533 93" clip-path="url(#clipPath2)"/>
      <path d="M505 93 L517 98 L514 93 L517 88 Z" clip-path="url(#clipPath2)" stroke="none"/>
      <path d="M541 93 L529 88 L532 93 L529 98 Z" clip-path="url(#clipPath2)" stroke="none"/>
      <path fill="none" d="M461.8289 148.3461 L536.171 104.6539" clip-path="url(#clipPath2)"/>
      <path d="M454.9319 152.3997 L467.8109 150.63 L462.6911 147.8395 L462.744 142.0087 Z" clip-path="url(#clipPath2)" stroke="none"/>
      <path d="M543.0681 100.6003 L530.1891 102.37 L535.3089 105.1605 L535.256 110.9913 Z" clip-path="url(#clipPath2)" stroke="none"/>
      <path fill="none" d="M570.996 92.6529 L577.2002 92.5093 L597.2812 93.7737 L616.2139 96.679 L633.9688 101.1113 L650.5166 106.9565 L665.8281 114.1003 L679.874 122.4289 L692.625 131.8281 L704.0518 142.1839 L714.125 153.3821 L722.8154 165.3087 L730.0938 177.8496 L735.9307 190.8908 L740.2969 204.3181 L743.1631 218.0175 L744.5 231.875 L744.2783 245.7764 L742.4688 259.6077 L739.042 273.2547 L733.9688 286.6035 L727.2197 299.5399 L718.7656 311.95 L708.5771 323.7195 L696.625 334.7344 L682.8799 344.8806 L667.3125 354.0442 L649.8936 362.1109 L630.5938 368.9668 L609.3838 374.4977 L591.8345 377.5997 L591.735 377.6098" clip-path="url(#clipPath2)"/>
      <path d="M583.8299 378.838 L596.4553 381.9364 L592.7232 377.4562 L594.92 372.0549 Z" clip-path="url(#clipPath2)" stroke="none"/>
      <path fill="none" d="M545.3939 113.4086 L500.606 199.5914" clip-path="url(#clipPath2)"/>
      <path d="M549.083 106.31 L539.1127 114.6523 L544.9328 114.2959 L547.986 119.2636 Z" clip-path="url(#clipPath2)" stroke="none"/>
      <path d="M496.917 206.69 L506.8872 198.3477 L501.0672 198.7041 L498.0139 193.7364 Z" clip-path="url(#clipPath2)" stroke="none"/>
      <path fill="none" d="M490 116 L490 197" clip-path="url(#clipPath2)"/>
      <path d="M490 108 L485 120 L490 117 L495 120 Z" clip-path="url(#clipPath2)" stroke="none"/>
      <path d="M490 205 L495 193 L490 196 L485 193 Z" clip-path="url(#clipPath2)" stroke="none"/>
      <path fill="none" d="M475.632 202.04 L456.368 177.96" clip-path="url(#clipPath2)"/>
      <path d="M480.6296 208.287 L477.0376 195.7931 L475.0073 201.2592 L469.2289 202.04 Z" clip-path="url(#clipPath2)" stroke="none"/>
      <path d="M451.3704 171.713 L454.9624 184.2069 L456.9927 178.7408 L462.7711 177.96 Z" clip-path="url(#clipPath2)" stroke="none"/>
      <path fill="none" d="M493.9316 234.4756 L518.7977 326.0278" clip-path="url(#clipPath2)"/>
      <path d="M520.8945 333.7481 L522.5744 320.8571 L518.5356 325.0627 L512.9241 323.4781 Z" clip-path="url(#clipPath2)" stroke="none"/>
      <path fill="none" d="M500.606 113.4086 L545.3939 199.5914" clip-path="url(#clipPath2)"/>
      <path d="M496.917 106.31 L498.0139 119.2636 L501.0672 114.296 L506.8872 114.6523 Z" clip-path="url(#clipPath2)" stroke="none"/>
      <path d="M549.083 206.69 L547.986 193.7364 L544.9328 198.7041 L539.1127 198.3477 Z" clip-path="url(#clipPath2)" stroke="none"/>
      <path fill="none" d="M556 116 L556 197" clip-path="url(#clipPath2)"/>
      <path d="M556 108 L551 120 L556 117 L561 120 Z" clip-path="url(#clipPath2)" stroke="none"/>
      <path d="M556 205 L561 193 L556 196 L551 193 Z" clip-path="url(#clipPath2)" stroke="none"/>
      <path fill="none" d="M462.3531 170.7122 L535.6469 209.2878" clip-path="url(#clipPath2)"/>
      <path d="M455.2738 166.9862 L463.5641 176.9998 L463.238 171.1779 L468.2215 168.1506 Z" clip-path="url(#clipPath2)" stroke="none"/>
      <path d="M542.7262 213.0138 L534.4359 203.0002 L534.762 208.8221 L529.7784 211.8494 Z" clip-path="url(#clipPath2)" stroke="none"/>
      <path fill="none" d="M533 220 L513 220" clip-path="url(#clipPath2)"/>
      <path d="M541 220 L529 215 L532 220 L529 225 Z" clip-path="url(#clipPath2)" stroke="none"/>
      <path d="M505 220 L517 225 L514 220 L517 215 Z" clip-path="url(#clipPath2)" stroke="none"/>
      <path fill="none" d="M553.9815 234.8636 L541.8049 324.5275" clip-path="url(#clipPath2)"/>
      <path d="M540.7284 332.4548 L547.2977 321.2368 L541.9395 323.5366 L537.3887 319.8911 Z" clip-path="url(#clipPath2)" stroke="none"/>
      <path fill="none" d="M571.3438 110.1339 L600.6562 142.8661" clip-path="url(#clipPath2)"/>
      <path d="M566.0068 104.1743 L570.2875 116.4493 L572.0109 110.8788 L577.737 109.7781 Z" clip-path="url(#clipPath2)" stroke="none"/>
      <path d="M605.9932 148.8257 L601.7125 136.5507 L599.9891 142.1212 L594.263 143.2219 Z" clip-path="url(#clipPath2)" stroke="none"/>
      <path fill="none" d="M465 160 L593 160" clip-path="url(#clipPath2)"/>
      <path d="M457 160 L469 165 L466 160 L469 155 Z" clip-path="url(#clipPath2)" stroke="none"/>
      <path d="M601 160 L589 155 L592 160 L589 165 Z" clip-path="url(#clipPath2)" stroke="none"/>
      <path fill="none" d="M510.3075 103.7984 L595.6925 149.2016" clip-path="url(#clipPath2)"/>
      <path d="M503.244 100.0424 L511.4918 110.0911 L511.1904 104.2679 L516.1867 101.2617 Z" clip-path="url(#clipPath2)" stroke="none"/>
      <path d="M602.756 152.9576 L594.5082 142.9089 L594.8096 148.7321 L589.8133 151.7383 Z" clip-path="url(#clipPath2)" stroke="none"/>
      <path fill="none" d="M599.7366 176.2635 L572.2634 203.7365" clip-path="url(#clipPath2)"/>
      <path d="M605.3934 170.6066 L593.3726 175.5564 L599.0294 176.9706 L600.4437 182.6274 Z" clip-path="url(#clipPath2)" stroke="none"/>
      <path d="M566.6066 209.3934 L578.6274 204.4436 L572.9706 203.0294 L571.5563 197.3726 Z" clip-path="url(#clipPath2)" stroke="none"/>
      <path fill="none" d="M595.2342 169.8885 L510.7658 210.1115" clip-path="url(#clipPath2)"/>
      <path d="M602.4571 166.449 L589.4731 167.0939 L594.3314 170.3184 L593.7724 176.1225 Z" clip-path="url(#clipPath2)" stroke="none"/>
      <path d="M503.5429 213.551 L516.5269 212.9061 L511.6686 209.6816 L512.2275 203.8775 Z" clip-path="url(#clipPath2)" stroke="none"/>
      <path fill="none" d="M627.0414 170.1532 L628.4604 171.458 L638.8086 183.3203 L646.9946 195.5693 L652.9688 208.1875 L656.6812 221.1572 L658.082 234.4609 L657.1216 248.0811 L653.75 262 L647.9175 276.2002 L639.5742 290.6641 L628.6704 305.374 L615.1562 320.3125 L598.9819 335.4619 L581.9287 349.317 L581.8474 349.3753" clip-path="url(#clipPath2)"/>
      <path d="M575.4308 354.153 L588.0418 350.9968 L582.6495 348.778 L582.0696 342.976 Z" clip-path="url(#clipPath2)" stroke="none"/>
    </g>
  </g>
</svg>
