<?xml version="1.0" encoding="UTF-8"?><svg xmlns="http://www.w3.org/2000/svg" xmlns:xlink="http://www.w3.org/1999/xlink" fill-opacity="1" color-rendering="auto" color-interpolation="auto" text-rendering="auto" stroke="black" stroke-linecap="square" width="234" stroke-miterlimit="10" shape-rendering="auto" stroke-opacity="1" fill="black" stroke-dasharray="none" font-weight="normal" stroke-width="1" height="209" font-family="'Dialog'" font-style="normal" stroke-linejoin="miter" font-size="12px" stroke-dashoffset="0" image-rendering="auto">
  <!--Generated by ySVG 2.5-->
  <defs id="genericDefs"/>
  <g>
    <defs id="defs1">
      <clipPath clipPathUnits="userSpaceOnUse" id="clipPath1">
        <path d="M0 0 L234 0 L234 209 L0 209 L0 0 Z"/>
      </clipPath>
      <clipPath clipPathUnits="userSpaceOnUse" id="clipPath2">
        <path d="M493 272 L727 272 L727 481 L493 481 L493 272 Z"/>
      </clipPath>
    </defs>
    <g fill="white" text-rendering="geometricPrecision" shape-rendering="geometricPrecision" transform="translate(-493,-272)" stroke="white">
      <rect x="493" width="234" height="209" y="272" clip-path="url(#clipPath2)" stroke="none"/>
    </g>
    <g fill="rgb(255,204,0)" text-rendering="geometricPrecision" shape-rendering="geometricPrecision" transform="matrix(1,0,0,1,-493,-272)" stroke="rgb(255,204,0)">
      <circle r="25" clip-path="url(#clipPath2)" cx="637" cy="441" stroke="none"/>
    </g>
    <g text-rendering="geometricPrecision" stroke-miterlimit="1.45" shape-rendering="geometricPrecision" font-family="sans-serif" transform="matrix(1,0,0,1,-493,-272)" stroke-linecap="butt">
      <text x="633.1826" xml:space="preserve" y="445.1543" clip-path="url(#clipPath2)" stroke="none">1</text>
      <circle fill="none" r="25" clip-path="url(#clipPath2)" cx="637" cy="441"/>
    </g>
    <g fill="rgb(255,204,0)" text-rendering="geometricPrecision" shape-rendering="geometricPrecision" transform="matrix(1,0,0,1,-493,-272)" stroke="rgb(255,204,0)">
      <circle r="15" clip-path="url(#clipPath2)" cx="577" cy="302" stroke="none"/>
    </g>
    <g text-rendering="geometricPrecision" stroke-miterlimit="1.45" shape-rendering="geometricPrecision" font-family="sans-serif" transform="matrix(1,0,0,1,-493,-272)" stroke-linecap="butt">
      <text x="573.1826" xml:space="preserve" y="306.1543" clip-path="url(#clipPath2)" stroke="none">3</text>
      <circle fill="none" r="15" clip-path="url(#clipPath2)" cx="577" cy="302"/>
    </g>
    <g fill="rgb(255,204,0)" text-rendering="geometricPrecision" shape-rendering="geometricPrecision" transform="matrix(1,0,0,1,-493,-272)" stroke="rgb(255,204,0)">
      <circle r="15" clip-path="url(#clipPath2)" cx="637" cy="354" stroke="none"/>
    </g>
    <g text-rendering="geometricPrecision" stroke-miterlimit="1.45" shape-rendering="geometricPrecision" font-family="sans-serif" transform="matrix(1,0,0,1,-493,-272)" stroke-linecap="butt">
      <text x="633.1826" xml:space="preserve" y="358.1543" clip-path="url(#clipPath2)" stroke="none">4</text>
      <circle fill="none" r="15" clip-path="url(#clipPath2)" cx="637" cy="354"/>
    </g>
    <g fill="rgb(255,204,0)" text-rendering="geometricPrecision" shape-rendering="geometricPrecision" transform="matrix(1,0,0,1,-493,-272)" stroke="rgb(255,204,0)">
      <circle r="15" clip-path="url(#clipPath2)" cx="697" cy="302" stroke="none"/>
    </g>
    <g text-rendering="geometricPrecision" stroke-miterlimit="1.45" shape-rendering="geometricPrecision" font-family="sans-serif" transform="matrix(1,0,0,1,-493,-272)" stroke-linecap="butt">
      <text x="693.1826" xml:space="preserve" y="306.1543" clip-path="url(#clipPath2)" stroke="none">5</text>
      <circle fill="none" r="15" clip-path="url(#clipPath2)" cx="697" cy="302"/>
    </g>
    <g fill="rgb(255,204,0)" text-rendering="geometricPrecision" shape-rendering="geometricPrecision" transform="matrix(1,0,0,1,-493,-272)" stroke="rgb(255,204,0)">
      <circle r="15" clip-path="url(#clipPath2)" cx="523" cy="441" stroke="none"/>
    </g>
    <g text-rendering="geometricPrecision" stroke-miterlimit="1.45" shape-rendering="geometricPrecision" font-family="sans-serif" transform="matrix(1,0,0,1,-493,-272)" stroke-linecap="butt">
      <text x="519.1826" xml:space="preserve" y="445.1543" clip-path="url(#clipPath2)" stroke="none">2</text>
      <circle fill="none" r="15" clip-path="url(#clipPath2)" cx="523" cy="441"/>
      <path fill="none" d="M582.9446 315.7718 L623.9218 410.7021" clip-path="url(#clipPath2)"/>
      <path d="M627.0923 418.0471 L626.9272 405.0481 L623.5255 409.784 L617.746 409.0112 Z" clip-path="url(#clipPath2)" stroke="none"/>
      <path fill="none" d="M588.3353 311.8239 L619.6191 338.9366" clip-path="url(#clipPath2)"/>
      <path d="M625.6647 344.176 L619.8711 332.5384 L618.8635 338.2816 L613.3218 340.0953 Z" clip-path="url(#clipPath2)" stroke="none"/>
      <path fill="none" d="M637 369 L637 408" clip-path="url(#clipPath2)"/>
      <path d="M637 416 L642 404 L637 407 L632 404 Z" clip-path="url(#clipPath2)" stroke="none"/>
      <path fill="none" d="M648.3353 344.1761 L679.6191 317.0634" clip-path="url(#clipPath2)"/>
      <path d="M685.6647 311.824 L673.3218 315.9047 L678.8635 317.7184 L679.8711 323.4616 Z" clip-path="url(#clipPath2)" stroke="none"/>
      <path fill="none" d="M691.0554 315.7718 L650.0782 410.7021" clip-path="url(#clipPath2)"/>
      <path d="M646.9077 418.0471 L656.254 409.0112 L650.4745 409.784 L647.0728 405.0481 Z" clip-path="url(#clipPath2)" stroke="none"/>
      <path fill="none" d="M682 302 L600 302" clip-path="url(#clipPath2)"/>
      <path d="M592 302 L604 307 L601 302 L604 297 Z" clip-path="url(#clipPath2)" stroke="none"/>
      <path fill="none" d="M538 441 L604 441" clip-path="url(#clipPath2)"/>
      <path d="M612 441 L600 436 L603 441 L600 446 Z" clip-path="url(#clipPath2)" stroke="none"/>
    </g>
  </g>
</svg>
